<svg width="35" height="35" viewBox="0 0 35 35" fill="none" xmlns="http://www.w3.org/2000/svg">
<path d="M35 17.5C35 27.165 27.165 35 17.5 35C7.83502 35 0 27.165 0 17.5C0 7.83502 7.83502 0 17.5 0C27.165 0 35 7.83502 35 17.5Z" fill="#D9D9D9" fill-opacity="0.5"/>
<path d="M20.8516 17.5938L25.7378 12.7075C26.3374 12.1079 26.3374 11.1357 25.7378 10.5356L24.6519 9.44971C24.0522 8.8501 23.0801 8.8501 22.48 9.44971L17.5938 14.3359L12.7075 9.44971C12.1079 8.8501 11.1357 8.8501 10.5356 9.44971L9.44971 10.5356C8.8501 11.1353 8.8501 12.1074 9.44971 12.7075L14.3359 17.5938L9.44971 22.48C8.8501 23.0796 8.8501 24.0518 9.44971 24.6519L10.5356 25.7378C11.1353 26.3374 12.1079 26.3374 12.7075 25.7378L17.5938 20.8516L22.48 25.7378C23.0796 26.3374 24.0522 26.3374 24.6519 25.7378L25.7378 24.6519C26.3374 24.0522 26.3374 23.0801 25.7378 22.48L20.8516 17.5938Z" fill="#EC6C62"/>
</svg>
