<svg width="35" height="35" viewBox="0 0 35 35" fill="none" xmlns="http://www.w3.org/2000/svg">
<path d="M35 17.5C35 27.165 27.165 35 17.5 35C7.83502 35 0 27.165 0 17.5C0 7.83502 7.83502 0 17.5 0C27.165 0 35 7.83502 35 17.5Z" fill="#D9D9D9" fill-opacity="0.5"/>
<path d="M22.9286 13.875V12.5C22.9286 9.46727 20.4933 7 17.5 7C14.5067 7 12.0714 9.46727 12.0714 12.5V13.875H8V25.5625C8 27.461 9.51902 29 11.3929 29H23.6071C25.481 29 27 27.461 27 25.5625V13.875H22.9286ZM14.7857 12.5C14.7857 10.9836 16.0033 9.75 17.5 9.75C18.9967 9.75 20.2143 10.9836 20.2143 12.5V13.875H14.7857V12.5ZM21.5714 17.6562C21.0093 17.6562 20.5536 17.1946 20.5536 16.625C20.5536 16.0554 21.0093 15.5938 21.5714 15.5938C22.1336 15.5938 22.5893 16.0554 22.5893 16.625C22.5893 17.1946 22.1336 17.6562 21.5714 17.6562ZM13.4286 17.6562C12.8664 17.6562 12.4107 17.1946 12.4107 16.625C12.4107 16.0554 12.8664 15.5938 13.4286 15.5938C13.9907 15.5938 14.4464 16.0554 14.4464 16.625C14.4464 17.1946 13.9907 17.6562 13.4286 17.6562Z" fill="#EC6C62"/>
</svg>
