<svg width="35" height="35" viewBox="0 0 35 35" fill="none" xmlns="http://www.w3.org/2000/svg">
<path d="M35 17.5C35 27.165 27.165 35 17.5 35C7.83502 35 0 27.165 0 17.5C0 7.83502 7.83502 0 17.5 0C27.165 0 35 7.83502 35 17.5Z" fill="#D9D9D9" fill-opacity="0.5"/>
<path d="M17.946 12.3308C14.8406 12.3308 12.3357 14.8357 12.3357 17.9412C12.3357 21.0466 14.8406 23.5515 17.946 23.5515C21.0515 23.5515 23.5564 21.0466 23.5564 17.9412C23.5564 14.8357 21.0515 12.3308 17.946 12.3308ZM17.946 21.5886C15.9392 21.5886 14.2986 19.9529 14.2986 17.9412C14.2986 15.9294 15.9343 14.2937 17.946 14.2937C19.9578 14.2937 21.5935 15.9294 21.5935 17.9412C21.5935 19.9529 19.9529 21.5886 17.946 21.5886ZM25.0945 12.1013C25.0945 12.8289 24.5085 13.4099 23.7859 13.4099C23.0584 13.4099 22.4773 12.824 22.4773 12.1013C22.4773 11.3787 23.0632 10.7927 23.7859 10.7927C24.5085 10.7927 25.0945 11.3787 25.0945 12.1013ZM28.8103 13.4294C28.7273 11.6765 28.3269 10.1238 27.0427 8.84448C25.7634 7.56519 24.2107 7.16479 22.4578 7.0769C20.6511 6.97437 15.2361 6.97437 13.4294 7.0769C11.6814 7.15991 10.1287 7.5603 8.84448 8.8396C7.5603 10.1189 7.16479 11.6716 7.0769 13.4246C6.97437 15.2312 6.97437 20.6462 7.0769 22.4529C7.15991 24.2058 7.5603 25.7585 8.84448 27.0378C10.1287 28.3171 11.6765 28.7175 13.4294 28.8054C15.2361 28.908 20.6511 28.908 22.4578 28.8054C24.2107 28.7224 25.7634 28.322 27.0427 27.0378C28.322 25.7585 28.7224 24.2058 28.8103 22.4529C28.9128 20.6462 28.9128 15.2361 28.8103 13.4294ZM26.4763 24.3914C26.0955 25.3484 25.3582 26.0857 24.3962 26.4714C22.9558 27.0427 19.5378 26.9109 17.946 26.9109C16.3542 26.9109 12.9314 27.0378 11.4958 26.4714C10.5388 26.0906 9.80151 25.3533 9.41577 24.3914C8.84448 22.9509 8.97632 19.533 8.97632 17.9412C8.97632 16.3494 8.84937 12.9265 9.41577 11.491C9.79663 10.5339 10.5339 9.79663 11.4958 9.41089C12.9363 8.8396 16.3542 8.97144 17.946 8.97144C19.5378 8.97144 22.9607 8.84448 24.3962 9.41089C25.3533 9.79175 26.0906 10.5291 26.4763 11.491C27.0476 12.9314 26.9158 16.3494 26.9158 17.9412C26.9158 19.533 27.0476 22.9558 26.4763 24.3914Z" fill="#EC6C62"/>
</svg>
