<svg width="35" height="35" viewBox="0 0 35 35" fill="none" xmlns="http://www.w3.org/2000/svg">
<path d="M35 17.5C35 27.165 27.165 35 17.5 35C7.83502 35 0 27.165 0 17.5C0 7.83502 7.83502 0 17.5 0C27.165 0 35 7.83502 35 17.5Z" fill="#D9D9D9" fill-opacity="0.5"/>
<path d="M25.5986 8.17871C23.5527 6.12793 20.8281 5 17.9326 5C11.9561 5 7.09277 9.86328 7.09277 15.8398C7.09277 17.749 7.59082 19.6143 8.53809 21.2598L7 26.875L12.7471 25.3662C14.3291 26.2305 16.1113 26.6846 17.9277 26.6846H17.9326C23.9043 26.6846 28.875 21.8213 28.875 15.8447C28.875 12.9492 27.6445 10.2295 25.5986 8.17871ZM17.9326 24.8584C16.3115 24.8584 14.7246 24.4238 13.3428 23.6035L13.0156 23.4082L9.60742 24.3018L10.5156 20.9766L10.3008 20.6348C9.39746 19.1992 8.92383 17.5439 8.92383 15.8398C8.92383 10.874 12.9668 6.83105 17.9375 6.83105C20.3447 6.83105 22.6055 7.76855 24.3047 9.47266C26.0039 11.1768 27.0488 13.4375 27.0439 15.8447C27.0439 20.8154 22.8984 24.8584 17.9326 24.8584ZM22.874 18.1104C22.6055 17.9736 21.2725 17.3193 21.0234 17.2314C20.7744 17.1387 20.5938 17.0947 20.4131 17.3682C20.2324 17.6416 19.7148 18.2471 19.5537 18.4326C19.3975 18.6133 19.2363 18.6377 18.9678 18.501C17.376 17.7051 16.3311 17.0801 15.2812 15.2783C15.0029 14.7998 15.5596 14.834 16.0771 13.7988C16.165 13.6182 16.1211 13.4619 16.0527 13.3252C15.9844 13.1885 15.4424 11.8555 15.2178 11.3135C14.998 10.7861 14.7734 10.8594 14.6074 10.8496C14.4512 10.8398 14.2705 10.8398 14.0898 10.8398C13.9092 10.8398 13.6162 10.9082 13.3672 11.1768C13.1182 11.4502 12.4199 12.1045 12.4199 13.4375C12.4199 14.7705 13.3916 16.0596 13.5234 16.2402C13.6602 16.4209 15.4326 19.1553 18.1523 20.332C19.8711 21.0742 20.5449 21.1377 21.4043 21.0107C21.9268 20.9326 23.0059 20.3564 23.2305 19.7217C23.4551 19.0869 23.4551 18.5449 23.3867 18.4326C23.3232 18.3105 23.1426 18.2422 22.874 18.1104Z" fill="#EC6C62"/>
</svg>
